<?xml version="1.0" encoding="utf-8" ?>
<svg baseProfile="full" height="261px" version="1.1" width="244px" xmlns="http://www.w3.org/2000/svg" xmlns:ev="http://www.w3.org/2001/xml-events" xmlns:xlink="http://www.w3.org/1999/xlink"><defs><linearGradient id="grad1" x1="0" x2="1" y1="0" y2="1"><stop offset="0" stop-color="deepskyblue" /><stop offset="1" stop-color="dodgerblue" /></linearGradient></defs><path d="M 136,98 L 135,99 L 133,99 L 132,100 L 131,100 L 130,101 L 129,101 L 127,103 L 126,103 L 125,104 L 124,104 L 122,106 L 121,106 L 120,107 L 119,107 L 117,109 L 116,109 L 113,112 L 112,112 L 108,116 L 107,116 L 91,132 L 91,133 L 87,137 L 87,138 L 84,141 L 84,142 L 82,144 L 82,145 L 81,146 L 81,147 L 79,149 L 79,150 L 77,152 L 77,153 L 76,154 L 76,155 L 75,156 L 75,157 L 74,158 L 74,159 L 72,161 L 72,162 L 71,163 L 71,165 L 70,166 L 70,167 L 69,168 L 69,169 L 68,170 L 68,172 L 65,175 L 64,175 L 63,176 L 62,176 L 61,177 L 60,177 L 59,178 L 58,178 L 56,180 L 55,180 L 52,183 L 51,183 L 41,193 L 41,194 L 39,196 L 39,197 L 38,198 L 38,199 L 37,200 L 37,201 L 36,202 L 36,203 L 35,204 L 35,205 L 34,206 L 34,209 L 33,210 L 33,212 L 32,213 L 32,220 L 191,220 L 191,211 L 190,210 L 190,208 L 189,207 L 189,205 L 188,204 L 188,202 L 187,201 L 187,200 L 186,199 L 186,198 L 184,196 L 184,195 L 181,192 L 181,191 L 174,184 L 173,184 L 170,181 L 169,181 L 167,179 L 166,179 L 165,178 L 164,178 L 163,177 L 162,177 L 161,176 L 160,176 L 159,175 L 158,175 L 157,174 L 156,174 L 155,173 L 154,173 L 153,172 L 151,172 L 150,171 L 148,171 L 147,170 L 145,170 L 144,169 L 141,169 L 140,168 L 137,168 L 136,167 L 132,167 L 131,166 L 126,166 L 125,165 L 99,165 L 98,166 L 95,166 L 94,165 L 94,164 L 95,163 L 95,162 L 96,161 L 96,159 L 97,158 L 97,157 L 98,156 L 98,154 L 99,153 L 99,152 L 100,151 L 100,150 L 101,149 L 101,148 L 102,147 L 102,146 L 103,145 L 103,144 L 105,142 L 105,141 L 107,139 L 107,138 L 109,136 L 109,135 L 112,132 L 112,131 L 119,124 L 119,123 L 121,121 L 122,121 L 129,114 L 130,114 L 134,110 L 135,110 L 139,106 L 140,106 L 143,103 L 143,102 L 144,101 L 144,99 L 143,98 Z" fill="url(#grad1)" /><path d="M 170,20 L 168,22 L 168,29 L 167,30 L 167,34 L 166,35 L 166,37 L 165,38 L 165,40 L 164,41 L 164,42 L 163,43 L 163,44 L 162,45 L 162,46 L 160,48 L 160,49 L 153,56 L 152,56 L 149,59 L 148,59 L 147,60 L 146,60 L 145,61 L 144,61 L 143,62 L 141,62 L 140,63 L 138,63 L 137,64 L 133,64 L 132,65 L 125,65 L 124,66 L 124,69 L 126,71 L 133,71 L 134,72 L 138,72 L 139,73 L 141,73 L 142,74 L 144,74 L 145,75 L 146,75 L 147,76 L 148,76 L 150,78 L 151,78 L 154,81 L 155,81 L 158,84 L 158,85 L 161,88 L 161,89 L 163,91 L 163,92 L 164,93 L 164,94 L 165,95 L 165,97 L 166,98 L 166,100 L 167,101 L 167,105 L 168,106 L 168,113 L 170,115 L 172,115 L 174,113 L 174,106 L 175,105 L 175,101 L 176,100 L 176,98 L 177,97 L 177,95 L 178,94 L 178,93 L 179,92 L 179,91 L 181,89 L 181,88 L 190,79 L 191,79 L 193,77 L 194,77 L 195,76 L 196,76 L 197,75 L 198,75 L 199,74 L 201,74 L 202,73 L 205,73 L 206,72 L 212,72 L 213,71 L 216,71 L 218,69 L 218,67 L 216,65 L 210,65 L 209,64 L 204,64 L 203,63 L 201,63 L 200,62 L 199,62 L 198,61 L 197,61 L 196,60 L 195,60 L 194,59 L 193,59 L 191,57 L 190,57 L 182,49 L 182,48 L 180,46 L 180,45 L 179,44 L 179,43 L 178,42 L 178,41 L 177,40 L 177,39 L 176,38 L 176,36 L 175,35 L 175,31 L 174,30 L 174,22 L 172,20 Z" fill="url(#grad1)" /></svg>